<?xml version="1.0" encoding="UTF-8" standalone="no"?>
<svg
   viewBox="0 0 30 30"
   version="1.1"
   id="svg9938"
   sodipodi:docname="boutton submit footer.svg"
   inkscape:version="1.2.2 (732a01da63, 2022-12-09)"
   width="30"
   height="30"
   xmlns:inkscape="http://www.inkscape.org/namespaces/inkscape"
   xmlns:sodipodi="http://sodipodi.sourceforge.net/DTD/sodipodi-0.dtd"
   xmlns="http://www.w3.org/2000/svg"
   xmlns:svg="http://www.w3.org/2000/svg">
  <defs
     id="defs9942" />
  <sodipodi:namedview
     id="namedview9940"
     pagecolor="#ffffff"
     bordercolor="#000000"
     borderopacity="0.25"
     inkscape:showpageshadow="2"
     inkscape:pageopacity="0.0"
     inkscape:pagecheckerboard="0"
     inkscape:deskcolor="#d1d1d1"
     showgrid="false"
     inkscape:zoom="1.0029297"
     inkscape:cx="150.55891"
     inkscape:cy="158.53554"
     inkscape:window-width="3840"
     inkscape:window-height="2054"
     inkscape:window-x="-11"
     inkscape:window-y="-11"
     inkscape:window-maximized="1"
     inkscape:current-layer="svg9938" />
  <rect
     style="fill:#db6a05;fill-opacity:1;stroke-width:0.0413879"
     id="rect10424"
     width="30"
     height="30"
     x="0"
     y="0" />
  <!--! Font Awesome Pro 6.3.0 by @fontawesome - https://fontawesome.com License - https://fontawesome.com/license (Commercial License) Copyright 2023 Fonticons, Inc. -->
  <path
     d="m 8.1752125,8.9287122 c 3.2962505,0.0828 6.5651805,1.3870598 9.0703905,3.9144398 2.50522,2.52738 3.78065,5.80767 3.8344,9.10452 0.0119,0.60963 0.5121,1.09462 1.11929,1.0851 0.60718,-0.01 0.92476,-0.58578 0.91525,-1.19297 -0.0587,-3.84549 -1.37881,-7.60166 -4.30157,-10.55027 -2.92275,-2.9486198 -6.73933,-4.4723098 -10.5841405,-4.5697098 -0.60952,-0.0124 -1.11393,0.46813 -1.13125,1.07764 -0.0173,0.6095 0.46568,1.11636 1.07521,1.1288 z m 5.1519705,7.7984998 c 1.37884,1.39104 2.11956,3.17184 2.22616,4.98886 0.0363,0.60974 0.55853,1.07288 1.16582,1.03898 0.60729,-0.0339 1.07289,-0.55853 1.03899,-1.16582 -0.13603,-2.33163 -1.0915,-4.62786 -2.8636,-6.41564 -1.7721,-1.78779 -4.05983,-2.76344 -6.3877505,-2.91755 -0.60939,-0.0417 -1.13323,0.41928 -1.17492,1.02867 -0.0417,0.6094 0.41927,1.13323 1.02867,1.17493 1.8135805,0.12015 3.5877905,0.87653 4.9690605,2.27002 z m -2.3648,5.45143 c 0.86564,-0.85805 0.87179,-2.25536 0.0138,-3.12099 -0.85805,-0.86564 -2.2553605,-0.87179 -3.1210005,-0.0138 -0.86563,0.85804 -0.87178,2.25536 -0.0137,3.12099 0.85804,0.86563 2.2553605,0.87179 3.1209905,0.0138 z"
     id="path9936"
     sodipodi:nodetypes="cscscscsccccscscscccsssss"
     style="fill:#ffffff;fill-opacity:1;stroke-width:0.0344827" />
</svg>
