<?xml version="1.0" encoding="UTF-8" standalone="no"?>
<svg
   viewBox="0 0 30 30"
   version="1.1"
   id="svg3790"
   sodipodi:docname="instagram.svg"
   inkscape:version="1.2.2 (732a01da63, 2022-12-09)"
   width="30"
   height="30"
   xmlns:inkscape="http://www.inkscape.org/namespaces/inkscape"
   xmlns:sodipodi="http://sodipodi.sourceforge.net/DTD/sodipodi-0.dtd"
   xmlns="http://www.w3.org/2000/svg"
   xmlns:svg="http://www.w3.org/2000/svg">
  <defs
     id="defs3794" />
  <sodipodi:namedview
     id="namedview3792"
     pagecolor="#ffffff"
     bordercolor="#000000"
     borderopacity="0.25"
     inkscape:showpageshadow="2"
     inkscape:pageopacity="0.0"
     inkscape:pagecheckerboard="0"
     inkscape:deskcolor="#d1d1d1"
     showgrid="false"
     inkscape:zoom="1.0029297"
     inkscape:cx="146.57059"
     inkscape:cy="156.54138"
     inkscape:window-width="3840"
     inkscape:window-height="2054"
     inkscape:window-x="-11"
     inkscape:window-y="-11"
     inkscape:window-maximized="1"
     inkscape:current-layer="svg3790" />
  <rect
     style="fill:#525252;fill-opacity:1;stroke-width:0.0352942"
     id="rect4276"
     width="30"
     height="30"
     x="0"
     y="0" />
  <!--! Font Awesome Pro 6.3.0 by @fontawesome - https://fontawesome.com License - https://fontawesome.com/license (Commercial License) Copyright 2023 Fonticons, Inc. -->
  <path
     d="m 15.053188,10.571841 c -2.244706,0 -4.055294,1.81059 -4.055294,4.0553 0,2.2447 1.810588,4.05529 4.055294,4.05529 2.244706,0 4.055294,-1.81059 4.055294,-4.05529 0,-2.24471 -1.810588,-4.0553 -4.055294,-4.0553 z m 0,6.69177 c -1.450589,0 -2.636471,-1.18236 -2.636471,-2.63647 0,-1.45412 1.182353,-2.63647 2.636471,-2.63647 1.454117,0 2.63647,1.18235 2.63647,2.63647 0,1.45411 -1.185882,2.63647 -2.63647,2.63647 z m 5.167059,-6.85765 c 0,0.52588 -0.42353,0.94588 -0.945883,0.94588 -0.525882,0 -0.945882,-0.42353 -0.945882,-0.94588 0,-0.5223503 0.423529,-0.9458803 0.945882,-0.9458803 0.522353,0 0.945883,0.42353 0.945883,0.9458803 z m 2.685882,0.96 c -0.06,-1.26706 -0.34941,-2.3894103 -1.277647,-3.3141203 -0.924706,-0.9247 -2.047059,-1.21412 -3.314118,-1.27765 -1.305882,-0.0741 -5.22,-0.0741 -6.525882,0 -1.26353,0.06 -2.385883,0.34942 -3.314118,1.27412 -0.928235,0.92471 -1.214117,2.0470603 -1.277647,3.3141203 -0.07412,1.30588 -0.07412,5.22 0,6.52588 0.06,1.26706 0.349412,2.38941 1.277647,3.31412 0.928235,0.92471 2.047059,1.21412 3.314118,1.27765 1.305882,0.0741 5.22,0.0741 6.525882,0 1.267059,-0.06 2.389412,-0.34941 3.314118,-1.27765 0.924707,-0.92471 1.214117,-2.04706 1.277647,-3.31412 0.0741,-1.30588 0.0741,-5.21647 0,-6.52235 z m -1.687059,7.92353 c -0.275294,0.69176 -0.808235,1.22471 -1.503529,1.50353 -1.041177,0.41294 -3.511765,0.31765 -4.662353,0.31765 -1.150589,0 -3.624706,0.0918 -4.662353,-0.31765 -0.691765,-0.2753 -1.224706,-0.80824 -1.50353,-1.50353 -0.412941,-1.04118 -0.317647,-3.51177 -0.317647,-4.66235 0,-1.15059 -0.09176,-3.62471 0.317647,-4.6623603 0.275294,-0.69176 0.808236,-1.2247 1.50353,-1.50353 1.041176,-0.41294 3.511764,-0.31764 4.662353,-0.31764 1.150588,0 3.624706,-0.0918 4.662353,0.31764 0.691764,0.2753 1.224706,0.80824 1.503529,1.50353 0.412941,1.0411803 0.317647,3.5117703 0.317647,4.6623603 0,1.15058 0.09529,3.6247 -0.317647,4.66235 z"
     id="path3788"
     style="fill:#ffffff;fill-opacity:1;stroke-width:0.0352942" />
</svg>
