<?xml version="1.0" encoding="UTF-8" standalone="no"?>
<svg
   viewBox="0 0 30 30"
   version="1.1"
   id="svg5748"
   sodipodi:docname="twitter logo.svg"
   inkscape:version="1.2.2 (732a01da63, 2022-12-09)"
   width="30"
   height="30"
   xmlns:inkscape="http://www.inkscape.org/namespaces/inkscape"
   xmlns:sodipodi="http://sodipodi.sourceforge.net/DTD/sodipodi-0.dtd"
   xmlns="http://www.w3.org/2000/svg"
   xmlns:svg="http://www.w3.org/2000/svg">
  <defs
     id="defs5752" />
  <sodipodi:namedview
     id="namedview5750"
     pagecolor="#ffffff"
     bordercolor="#000000"
     borderopacity="0.25"
     inkscape:showpageshadow="2"
     inkscape:pageopacity="0.0"
     inkscape:pagecheckerboard="0"
     inkscape:deskcolor="#d1d1d1"
     showgrid="false"
     inkscape:zoom="1.4183568"
     inkscape:cx="7.7554534"
     inkscape:cy="164.97964"
     inkscape:window-width="3840"
     inkscape:window-height="2054"
     inkscape:window-x="-11"
     inkscape:window-y="-11"
     inkscape:window-maximized="1"
     inkscape:current-layer="svg5748" />
  <circle
     style="fill:#525252;fill-opacity:1;stroke-width:0.0374999"
     id="path5754"
     cx="15"
     cy="15"
     r="15" />
  <!--! Font Awesome Pro 6.3.0 by @fontawesome - https://fontawesome.com License - https://fontawesome.com/license (Commercial License) Copyright 2023 Fonticons, Inc. -->
  <path
     d="m 21.98135,11.370658 c 0.0108,0.1516 0.0108,0.30323 0.0108,0.45483 0,4.624 -3.51943,9.95194 -9.95193,9.95194 -1.98173,0 -3.8226701,-0.57397 -5.3712301,-1.5702 0.28156,0.0325 0.55226,0.0433 0.84466,0.0433 1.63517,0 3.1404401,-0.55227 4.3424701,-1.4944 -1.53773,-0.0325 -2.8264001,-1.0396 -3.2704001,-2.42574 0.2166,0.0325 0.43317,0.0541 0.6606,0.0541 0.31403,0 0.6281,-0.0433 0.9204701,-0.1191 -1.6027001,-0.3249 -2.8047701,-1.73267 -2.8047701,-3.43284 v -0.0433 c 0.46563,0.2599 1.00713,0.42234 1.58103,0.44397 -0.94213,-0.6281 -1.55936,-1.70017 -1.55936,-2.91303 0,-0.6497399 0.17323,-1.2453399 0.47646,-1.7651399 1.72184,2.1224999 4.3100001,3.5085999 7.2121701,3.6602399 -0.0541,-0.2599 -0.0866,-0.5306 -0.0866,-0.80134 0,-1.9275999 1.5594,-3.4977999 3.4978,-3.4977999 1.0071,0 1.91673,0.42234 2.55566,1.10457 0.7905,-0.1516 1.54854,-0.444 2.21997,-0.84467 -0.25993,0.8122 -0.8122,1.49444 -1.53773,1.9275699 0.7039,-0.0758 1.38613,-0.2707299 2.0142,-0.5414299 -0.4764,0.6930299 -1.07204,1.3102599 -1.75427,1.8084299 z"
     id="path5746"
     style="fill:#ffffff;fill-opacity:1;stroke-width:0.0333333" />
</svg>
