<?xml version="1.0" encoding="UTF-8" standalone="no"?>
<svg
   viewBox="0 0 30 30"
   version="1.1"
   id="svg5748"
   sodipodi:docname="twitter logo carré.svg"
   inkscape:version="1.2.2 (732a01da63, 2022-12-09)"
   width="30"
   height="30"
   xmlns:inkscape="http://www.inkscape.org/namespaces/inkscape"
   xmlns:sodipodi="http://sodipodi.sourceforge.net/DTD/sodipodi-0.dtd"
   xmlns="http://www.w3.org/2000/svg"
   xmlns:svg="http://www.w3.org/2000/svg">
  <defs
     id="defs5752" />
  <sodipodi:namedview
     id="namedview5750"
     pagecolor="#ffffff"
     bordercolor="#000000"
     borderopacity="0.25"
     inkscape:showpageshadow="2"
     inkscape:pageopacity="0.0"
     inkscape:pagecheckerboard="0"
     inkscape:deskcolor="#d1d1d1"
     showgrid="false"
     inkscape:zoom="1.4183568"
     inkscape:cx="-134.66287"
     inkscape:cy="161.45444"
     inkscape:window-width="3840"
     inkscape:window-height="2054"
     inkscape:window-x="-11"
     inkscape:window-y="-11"
     inkscape:window-maximized="1"
     inkscape:current-layer="svg5748" />
  <rect
     style="fill:#525252;fill-opacity:1;stroke-width:0.0863403"
     id="rect6946"
     width="30"
     height="30"
     x="0"
     y="0" />
  <!--! Font Awesome Pro 6.3.0 by @fontawesome - https://fontawesome.com License - https://fontawesome.com/license (Commercial License) Copyright 2023 Fonticons, Inc. -->
  <path
     d="m 21.39662,12.239175 c 0.009,0.13182 0.009,0.26368 0.009,0.3955 0,4.02087 -3.06038,8.65386 -8.65386,8.65386 -1.72324,0 -3.3240504,-0.4991 -4.6706304,-1.36539 0.24484,0.0282 0.48023,0.0376 0.73449,0.0376 1.4218804,0 2.7308104,-0.48023 3.7760604,-1.29948 -1.33716,-0.0283 -2.45774,-0.904 -2.8438304,-2.10933 0.18835,0.0282 0.3766704,0.0471 0.5744404,0.0471 0.27307,0 0.54617,-0.0377 0.8004,-0.10356 -1.3936504,-0.28253 -2.4389304,-1.50667 -2.4389304,-2.98508 v -0.0376 c 0.4049,0.226 0.87577,0.36725 1.3748204,0.38606 -0.8192504,-0.54618 -1.3559804,-1.47841 -1.3559804,-2.53307 0,-0.56499 0.15064,-1.0829 0.41432,-1.5348999 1.4972504,1.8456499 3.7478304,3.0509499 6.2714504,3.1828099 -0.0471,-0.226 -0.0753,-0.46139 -0.0753,-0.69681 0,-1.67618 1.356,-3.0415699 3.04156,-3.0415699 0.87574,0 1.66673,0.36725 2.22232,0.9604999 0.6874,-0.13183 1.34655,-0.3860899 1.93041,-0.7344999 -0.22603,0.7062599 -0.70626,1.2995099 -1.33716,1.6761499 0.61209,-0.0659 1.20533,-0.23542 1.75148,-0.47081 -0.41426,0.60263 -0.9322,1.13936 -1.52545,1.57255 z"
     id="path5746"
     style="fill:#ffffff;fill-opacity:1;stroke-width:0.0289855" />
</svg>
