<?xml version="1.0" encoding="UTF-8" standalone="no"?>
<svg
   viewBox="0 0 30 30"
   version="1.1"
   id="svg8221"
   sodipodi:docname="youtube.svg"
   inkscape:version="1.2.2 (732a01da63, 2022-12-09)"
   width="30"
   height="30"
   xmlns:inkscape="http://www.inkscape.org/namespaces/inkscape"
   xmlns:sodipodi="http://sodipodi.sourceforge.net/DTD/sodipodi-0.dtd"
   xmlns="http://www.w3.org/2000/svg"
   xmlns:svg="http://www.w3.org/2000/svg">
  <defs
     id="defs8225" />
  <sodipodi:namedview
     id="namedview8223"
     pagecolor="#ffffff"
     bordercolor="#000000"
     borderopacity="0.25"
     inkscape:showpageshadow="2"
     inkscape:pageopacity="0.0"
     inkscape:pagecheckerboard="0"
     inkscape:deskcolor="#d1d1d1"
     showgrid="false"
     inkscape:zoom="1.0029297"
     inkscape:cx="141.5852"
     inkscape:cy="178.47712"
     inkscape:window-width="3840"
     inkscape:window-height="2054"
     inkscape:window-x="-11"
     inkscape:window-y="-11"
     inkscape:window-maximized="1"
     inkscape:current-layer="svg8221" />
  <rect
     style="fill:#525252;stroke-width:0.0340479"
     id="rect8707"
     width="30"
     height="30"
     x="0"
     y="0" />
  <!--! Font Awesome Pro 6.3.0 by @fontawesome - https://fontawesome.com License - https://fontawesome.com/license (Commercial License) Copyright 2023 Fonticons, Inc. -->
  <path
     d="m 24.361518,10.115531 c -0.22168,-0.8347007 -0.87483,-1.4920907 -1.70414,-1.7151807 -1.50317,-0.40539 -7.53074,-0.40539 -7.53074,-0.40539 0,0 -6.0275304,0 -7.5307404,0.40539 -0.8293,0.22313 -1.48246,0.88048 -1.70414,1.7151807 -0.40278,1.51296 -0.40278,4.66959 -0.40278,4.66959 0,0 0,3.15664 0.40278,4.66959 0.22168,0.83471 0.87484,1.46471 1.70414,1.6878 1.50321,0.405395 7.5307404,0.405395 7.5307404,0.405395 0,0 6.02753,0 7.53074,-0.405395 0.82931,-0.22309 1.48246,-0.85309 1.70414,-1.6878 0.40278,-1.51295 0.40278,-4.66959 0.40278,-4.66959 0,0 0,-3.15663 -0.40278,-4.66959 z m -11.20623,7.53558 v -5.73198 l 5.03785,2.86606 z"
     id="path8219"
     style="fill:#ffffff;fill-opacity:1;stroke-width:0.0352942" />
</svg>
